<svg width="1280" height="720" xmlns="http://www.w3.org/2000/svg" xmlns:xlink="http://www.w3.org/1999/xlink" overflow="hidden"><g><rect x="0" y="0" width="1280" height="720" fill="#FFFFFF"/><path d="M417.81 483.037 891.19 483.037 887.076 491.576C842.286 574.028 754.93 630 654.5 630 554.07 630 466.714 574.028 421.924 491.576ZM654.5 101C800.579 101 919 219.421 919 365.5L917.911 387.061 391.089 387.061 390 365.5C390 219.421 508.421 101 654.5 101Z" fill="#0E2130" fill-rule="evenodd"/><path d="M438.914 482.986 870.086 482.986 858.073 502.761C813.954 568.065 739.241 611 654.5 611 569.759 611 495.046 568.065 450.928 502.761ZM654.5 120C790.086 120 900 229.914 900 365.5L898.912 387.052 410.088 387.052 409 365.5C409 229.914 518.914 120 654.5 120Z" fill="#076B89" fill-rule="evenodd"/><path d="M460.693 481.918 849.307 481.918 843.232 491.918C802.438 552.3 733.355 592 655 592 576.645 592 507.562 552.3 466.768 491.918ZM655 138C780.369 138 882 239.631 882 365L880.949 385.821 429.051 385.821 428 365C428 239.631 529.631 138 655 138Z" fill="#057FA4" fill-rule="evenodd"/><path d="M466 365C466 260.618 550.618 176 655 176 759.382 176 844 260.618 844 365 844 469.382 759.382 554 655 554 550.618 554 466 469.382 466 365Z" fill="#FFFFFF" fill-rule="evenodd"/><path d="M471 482 838 482 837.416 483.211C802.19 548.011 733.486 592 654.5 592 575.514 592 506.81 548.011 471.584 483.211Z" fill="#AFA89D" fill-rule="evenodd"/><path d="M481 497.648 830 496 810.274 523.704C658.029 499.259 650.695 497.886 496.933 527L481 497.648Z" fill="#8E8985" fill-rule="evenodd"/><rect x="355" y="387" width="599" height="22" fill="#0C1F2E"/><path d="M634 142.5C652.242 140.409 649.806 134.926 654.5 123 658.125 135.265 657.471 138.713 675 142.5 662.819 140.861 658.838 145.665 654.5 162 648.736 146.343 654.381 145.609 634 142.5Z" fill="#FFFFFF" fill-rule="evenodd"/><path d="M418 482 471.735 482 472.318 483.213C507.499 548.102 576.115 592.152 655 592.152 733.885 592.152 802.501 548.102 837.682 483.213L838.266 482 892 482 887.505 491.35C842.728 573.936 755.399 630 655 630 554.601 630 467.272 573.936 422.495 491.35Z" fill="#0C1F2E" fill-rule="evenodd"/><rect x="355" y="481" width="599" height="22" fill="#0C1F2E"/><rect x="346" y="404" width="616" height="63" fill="#F3F5F4"/><text fill="#0C1F2D" font-family="Montserrat,Montserrat_MSFontService,sans-serif" font-weight="700" font-size="59" transform="translate(362.749 456)">ADMINISTRADORA</text><rect x="346" y="462" width="616" height="24" fill="#F3F5F4"/><text fill="#0C1F2D" font-family="Montserrat,Montserrat_MSFontService,sans-serif" font-weight="700" font-size="24" transform="translate(441.999 483)">-</text><text fill="#0C1F2D" font-family="Montserrat,Montserrat_MSFontService,sans-serif" font-weight="400" font-size="19" transform="translate(458.166 483)">DE NEGOCIOS Y FRANQUISIAS</text><text fill="#0C1F2D" font-family="Montserrat,Montserrat_MSFontService,sans-serif" font-weight="700" font-size="24" transform="translate(857.499 483)">-</text><path d="M515 352 515 389 496 389 496 372.934Z" fill="#0C1F2E" fill-rule="evenodd"/><path d="M547 319 547 389 528 389 528 339.654Z" fill="#0C1F2E" fill-rule="evenodd"/><path d="M567.674 296 578 305.769 578 389 559 389 559 305.49Z" fill="#0C1F2E" fill-rule="evenodd"/><path d="M609 319 609 389 590 389 590 339.654Z" fill="#0C1F2E" fill-rule="evenodd"/><path d="M20 0 20 37 0 37 0 20.9341Z" fill="#0C1F2E" fill-rule="evenodd" transform="matrix(-1 0 0 1 816 352)"/><path d="M19 0 19 70 0 70 0 20.6539Z" fill="#0C1F2E" fill-rule="evenodd" transform="matrix(-1 0 0 1 784 319)"/><path d="M9.13047 0 20 9.76876 20 93 0 93 0 9.49025Z" fill="#0C1F2E" fill-rule="evenodd" transform="matrix(-1 0 0 1 753 296)"/><path d="M20 0 20 70 0 70 0 20.6539Z" fill="#0C1F2E" fill-rule="evenodd" transform="matrix(-1 0 0 1 722 319)"/><path d="M626 252 632.225 252 631.345 253.588 631.035 277.551 645.202 252 663.48 252 677.822 277.867 677.512 253.905 676.456 252 685 252 685 389 626 389Z" fill="#0C1F2E" fill-rule="evenodd"/><path d="M653.531 237.681 655.151 237.681 663.624 253 645.058 253ZM655.5 200 685 253 676.6 253 654.439 212.933 654.496 217.31 654.358 217.31 654.418 212.616 632.082 253 626 253Z" fill="#0C1F2E" fill-rule="evenodd"/><path d="M640 289.5C644.449 289.017 643.855 287.752 645 285 645.884 287.83 645.725 288.626 650 289.5 647.029 289.122 646.058 290.23 645 294 643.594 290.387 644.971 290.217 640 289.5Z" fill="#FFFFFF" fill-rule="evenodd"/><path d="M650 302C654.449 301.464 653.855 300.058 655 297 655.884 300.145 655.725 301.029 660 302 657.029 301.58 656.058 302.812 655 307 653.594 302.986 654.971 302.797 650 302Z" fill="#FFFFFF" fill-rule="evenodd"/><path d="M658 290C662.894 289.464 662.241 288.058 663.5 285 664.472 288.145 664.297 289.029 669 290 665.732 289.58 664.664 290.812 663.5 295 661.954 290.986 663.468 290.797 658 290Z" fill="#FFFFFF" fill-rule="evenodd"/><path d="M430.341 173.284 563.351 223.376 557.293 239.46 424.283 189.369Z" fill="#FFFFFF" fill-rule="evenodd"/><rect x="0" y="0" width="142.129" height="17.1876" fill="#FFFFFF" transform="matrix(-0.935836 0.352435 0.352435 0.935836 876.032 173.284)"/></g></svg>